<?xml version="1.0" encoding="utf-8"?>
<!-- Generator: Adobe Illustrator 27.4.0, SVG Export Plug-In . SVG Version: 6.00 Build 0)  -->
<svg version="1.1" id="Capa_1" xmlns="http://www.w3.org/2000/svg" xmlns:xlink="http://www.w3.org/1999/xlink" x="0px" y="0px"
	 viewBox="0 0 792 612" style="enable-background:new 0 0 792 612;" xml:space="preserve">
<style type="text/css">
	.st0{stroke:#000000;stroke-miterlimit:10;}
	.st1{fill:#FFFFFF;stroke:#FFFFFF;stroke-miterlimit:10;}
	.st2{fill:#FFFFFF;stroke:#000000;stroke-miterlimit:10;}
	.st3{opacity:0.2;fill:#8CC092;}
	.st4{fill:#FFFFFF;}
</style>
<path class="st3" d="M53.59,90.75c0-24.13,19.56-43.69,43.69-43.69c13.38,0,25.36,6.02,33.37,15.5l7.74-5.98
	c-9.81-11.79-24.59-19.29-41.12-19.29c-29.53,0-53.47,23.94-53.47,53.47c0,11.63,3.72,22.39,10.02,31.17l7.74-5.98
	C56.55,108.82,53.59,100.13,53.59,90.75z"/>
<path class="st1" d="M130.66,62.56c6.43,7.61,10.32,17.45,10.32,28.19c0,24.13-19.56,43.69-43.69,43.69
	c-14.75,0-27.79-7.31-35.7-18.51l-7.74,5.98c9.7,13.5,25.55,22.3,43.45,22.3c29.53,0,53.47-23.94,53.47-53.47
	c0-13-4.64-24.91-12.35-34.18L130.66,62.56z"/>
<path class="st3" d="M97.28,134.44c24.13,0,43.69-19.56,43.69-43.69c0-10.75-3.88-20.58-10.32-28.19c-5,3.86-10,7.72-14.99,11.59
	c-10.43,8.06-20.86,16.12-31.29,24.18c-7.6,5.87-15.2,11.74-22.79,17.61C64.36,119.71,70.99,134.44,97.28,134.44z"/>
<path class="st4" d="M97.28,47.06c-24.13,0-43.69,19.56-43.69,43.69c0,9.38,2.96,18.07,7.99,25.19l69.08-53.38
	C122.64,53.08,110.67,47.06,97.28,47.06z"/>
<path class="st3" d="M202.78,91.05c0-24.13,19.56-43.69,43.69-43.69c13.38,0,25.36,6.02,33.37,15.5l7.74-5.98
	c-9.81-11.79-24.59-19.29-41.12-19.29c-29.53,0-53.47,23.94-53.47,53.47c0,11.63,3.72,22.39,10.02,31.17l7.74-5.98
	C205.74,109.12,202.78,100.43,202.78,91.05z"/>
<path class="st1" d="M279.85,62.86c6.43,7.61,10.32,17.45,10.32,28.19c0,24.13-19.56,43.69-43.69,43.69
	c-14.75,0-27.79-7.31-35.7-18.51l-7.74,5.98c9.7,13.5,25.55,22.3,43.45,22.3c29.53,0,53.47-23.94,53.47-53.47
	c0-13-4.64-24.91-12.35-34.18L279.85,62.86z"/>
<path class="st3" d="M246.47,134.74c24.13,0,43.69-19.56,43.69-43.69c0-10.75-3.88-20.58-10.32-28.19c-5,3.86-10,7.72-14.99,11.59
	c-10.43,8.06-20.86,16.12-31.29,24.18c-7.6,5.87-15.2,11.74-22.79,17.61C213.55,120.01,220.18,134.74,246.47,134.74z"/>
<path class="st4" d="M246.47,47.36c-24.13,0-43.69,19.56-43.69,43.69c0,9.38,2.96,18.07,7.99,25.19l69.08-53.38
	C271.84,53.38,259.86,47.36,246.47,47.36z"/>
<path class="st3" d="M351.09,91.12c0-24.13,19.56-43.69,43.69-43.69c13.38,0,25.36,6.02,33.37,15.5l7.74-5.98
	c-9.81-11.79-24.59-19.29-41.12-19.29c-29.53,0-53.47,23.94-53.47,53.47c0,11.63,3.72,22.39,10.02,31.17l7.74-5.98
	C354.04,109.19,351.09,100.5,351.09,91.12z"/>
<path class="st1" d="M428.15,62.93c6.43,7.61,10.32,17.45,10.32,28.19c0,24.13-19.56,43.69-43.69,43.69
	c-14.75,0-27.79-7.31-35.7-18.51l-7.74,5.98c9.7,13.5,25.55,22.3,43.45,22.3c29.53,0,53.47-23.94,53.47-53.47
	c0-13-4.64-24.91-12.35-34.18L428.15,62.93z"/>
<path class="st3" d="M394.78,134.81c24.13,0,43.69-19.56,43.69-43.69c0-10.75-3.88-20.58-10.32-28.19c-5,3.86-10,7.72-14.99,11.59
	c-10.43,8.06-20.86,16.12-31.29,24.18c-7.6,5.87-15.2,11.74-22.79,17.61C361.86,120.08,368.48,134.81,394.78,134.81z"/>
<path class="st4" d="M394.78,47.43c-24.13,0-43.69,19.56-43.69,43.69c0,9.38,2.96,18.07,7.99,25.19l69.08-53.38
	C420.14,53.45,408.16,47.43,394.78,47.43z"/>
<path class="st3" d="M500.28,91.42c0-24.13,19.56-43.69,43.69-43.69c13.38,0,25.36,6.02,33.37,15.5l7.74-5.98
	c-9.81-11.79-24.59-19.29-41.12-19.29c-29.53,0-53.47,23.94-53.47,53.47c0,11.63,3.72,22.39,10.02,31.17l7.74-5.98
	C503.24,109.49,500.28,100.8,500.28,91.42z"/>
<path class="st1" d="M577.35,63.23c6.43,7.61,10.32,17.45,10.32,28.19c0,24.13-19.56,43.69-43.69,43.69
	c-14.75,0-27.79-7.31-35.7-18.51l-7.74,5.98c9.7,13.5,25.55,22.3,43.45,22.3c29.53,0,53.47-23.94,53.47-53.47
	c0-13-4.64-24.91-12.35-34.18L577.35,63.23z"/>
<path class="st3" d="M543.97,135.11c24.13,0,43.69-19.56,43.69-43.69c0-10.75-3.88-20.58-10.32-28.19c-5,3.86-10,7.72-14.99,11.59
	c-10.43,8.06-20.86,16.12-31.29,24.18c-7.6,5.87-15.2,11.74-22.79,17.61C511.05,120.38,517.67,135.11,543.97,135.11z"/>
<path class="st4" d="M543.97,47.73c-24.13,0-43.69,19.56-43.69,43.69c0,9.38,2.96,18.07,7.99,25.19l69.08-53.38
	C569.33,53.75,557.35,47.73,543.97,47.73z"/>
<g>
	<path class="st3" d="M649.74,91.18c0-24.13,19.56-43.69,43.69-43.69c13.38,0,25.36,6.02,33.37,15.5l7.74-5.98
		c-9.81-11.79-24.59-19.29-41.12-19.29c-29.53,0-53.47,23.94-53.47,53.47c0,11.63,3.72,22.39,10.02,31.17l7.74-5.98
		C652.7,109.24,649.74,100.55,649.74,91.18z"/>
	<path class="st1" d="M726.81,62.98c6.43,7.61,10.32,17.45,10.32,28.19c0,24.13-19.56,43.69-43.69,43.69
		c-14.75,0-27.79-7.31-35.7-18.51l-7.74,5.98c9.7,13.5,25.55,22.3,43.45,22.3c29.53,0,53.47-23.94,53.47-53.47
		c0-13-4.64-24.91-12.35-34.18L726.81,62.98z"/>
	<path class="st3" d="M693.43,134.87c24.13,0,43.69-19.56,43.69-43.69c0-10.75-3.88-20.58-10.32-28.19c-5,3.86-10,7.72-14.99,11.59
		c-10.43,8.06-20.86,16.12-31.29,24.18c-7.6,5.87-15.2,11.74-22.79,17.61C660.51,120.13,667.14,134.87,693.43,134.87z"/>
	<path class="st4" d="M693.43,47.48c-24.13,0-43.69,19.56-43.69,43.69c0,9.38,2.96,18.07,7.99,25.19l69.08-53.38
		C718.79,53.5,706.82,47.48,693.43,47.48z"/>
</g>
<path class="st3" d="M54.88,225.75c0-24.13,19.56-43.69,43.69-43.69c13.38,0,25.36,6.02,33.37,15.5l7.74-5.98
	c-9.81-11.79-24.59-19.29-41.12-19.29c-29.53,0-53.47,23.94-53.47,53.47c0,11.63,3.72,22.39,10.02,31.17l7.74-5.98
	C57.83,243.82,54.88,235.13,54.88,225.75z"/>
<path class="st1" d="M131.94,197.56c6.43,7.61,10.32,17.45,10.32,28.19c0,24.13-19.56,43.69-43.69,43.69
	c-14.75,0-27.79-7.31-35.7-18.51l-7.74,5.98c9.7,13.5,25.55,22.3,43.45,22.3c29.53,0,53.47-23.94,53.47-53.47
	c0-13-4.64-24.91-12.35-34.18L131.94,197.56z"/>
<path class="st3" d="M98.57,269.44c24.13,0,43.69-19.56,43.69-43.69c0-10.75-3.88-20.58-10.32-28.19c-5,3.86-10,7.72-14.99,11.59
	c-10.43,8.06-20.86,16.12-31.29,24.18c-7.6,5.87-15.2,11.74-22.79,17.61C65.65,254.71,72.27,269.44,98.57,269.44z"/>
<path class="st4" d="M98.57,182.06c-24.13,0-43.69,19.56-43.69,43.69c0,9.38,2.96,18.07,7.99,25.19l69.08-53.38
	C123.93,188.08,111.95,182.06,98.57,182.06z"/>
<path class="st3" d="M204.07,226.05c0-24.13,19.56-43.69,43.69-43.69c13.38,0,25.36,6.02,33.37,15.5l7.74-5.98
	c-9.81-11.79-24.59-19.29-41.12-19.29c-29.53,0-53.47,23.94-53.47,53.47c0,11.63,3.72,22.39,10.02,31.17l7.74-5.98
	C207.03,244.12,204.07,235.43,204.07,226.05z"/>
<path class="st1" d="M281.14,197.86c6.43,7.61,10.32,17.45,10.32,28.19c0,24.13-19.56,43.69-43.69,43.69
	c-14.75,0-27.79-7.31-35.7-18.51l-7.74,5.98c9.7,13.5,25.55,22.3,43.45,22.3c29.53,0,53.47-23.94,53.47-53.47
	c0-13-4.64-24.91-12.35-34.18L281.14,197.86z"/>
<path class="st3" d="M247.76,269.74c24.13,0,43.69-19.56,43.69-43.69c0-10.75-3.88-20.58-10.32-28.19c-5,3.86-10,7.72-14.99,11.59
	c-10.43,8.06-20.86,16.12-31.29,24.18c-7.6,5.87-15.2,11.74-22.79,17.61C214.84,255.01,221.47,269.74,247.76,269.74z"/>
<path class="st4" d="M247.76,182.36c-24.13,0-43.69,19.56-43.69,43.69c0,9.38,2.96,18.07,7.99,25.19l69.08-53.38
	C273.12,188.38,261.14,182.36,247.76,182.36z"/>
<path class="st3" d="M352.37,226.12c0-24.13,19.56-43.69,43.69-43.69c13.38,0,25.36,6.02,33.37,15.5l7.74-5.98
	c-9.81-11.79-24.59-19.29-41.12-19.29c-29.53,0-53.47,23.94-53.47,53.47c0,11.63,3.72,22.39,10.02,31.17l7.74-5.98
	C355.33,244.19,352.37,235.5,352.37,226.12z"/>
<path class="st1" d="M429.44,197.93c6.43,7.61,10.32,17.45,10.32,28.19c0,24.13-19.56,43.69-43.69,43.69
	c-14.75,0-27.79-7.31-35.7-18.51l-7.74,5.98c9.7,13.5,25.55,22.3,43.45,22.3c29.53,0,53.47-23.94,53.47-53.47
	c0-13-4.64-24.91-12.35-34.18L429.44,197.93z"/>
<path class="st3" d="M396.06,269.81c24.13,0,43.69-19.56,43.69-43.69c0-10.75-3.88-20.58-10.32-28.19c-5,3.86-10,7.72-14.99,11.59
	c-10.43,8.06-20.86,16.12-31.29,24.18c-7.6,5.87-15.2,11.74-22.79,17.61C363.14,255.08,369.77,269.81,396.06,269.81z"/>
<path class="st4" d="M396.06,182.43c-24.13,0-43.69,19.56-43.69,43.69c0,9.38,2.96,18.07,7.99,25.19l69.08-53.38
	C421.42,188.45,409.45,182.43,396.06,182.43z"/>
<path class="st3" d="M501.56,226.42c0-24.13,19.56-43.69,43.69-43.69c13.38,0,25.36,6.02,33.37,15.5l7.74-5.98
	c-9.81-11.79-24.59-19.29-41.12-19.29c-29.53,0-53.47,23.94-53.47,53.47c0,11.63,3.72,22.39,10.02,31.17l7.74-5.98
	C504.52,244.49,501.56,235.8,501.56,226.42z"/>
<path class="st1" d="M578.63,198.23c6.43,7.61,10.32,17.45,10.32,28.19c0,24.13-19.56,43.69-43.69,43.69
	c-14.75,0-27.79-7.31-35.7-18.51l-7.74,5.98c9.7,13.5,25.55,22.3,43.45,22.3c29.53,0,53.47-23.94,53.47-53.47
	c0-13-4.64-24.91-12.35-34.18L578.63,198.23z"/>
<path class="st3" d="M545.26,270.11c24.13,0,43.69-19.56,43.69-43.69c0-10.75-3.88-20.58-10.32-28.19c-5,3.86-10,7.72-14.99,11.59
	c-10.43,8.06-20.86,16.12-31.29,24.18c-7.6,5.87-15.2,11.74-22.79,17.61C512.33,255.38,518.96,270.11,545.26,270.11z"/>
<path class="st4" d="M545.26,182.73c-24.13,0-43.69,19.56-43.69,43.69c0,9.38,2.96,18.07,7.99,25.19l69.08-53.38
	C570.62,188.75,558.64,182.73,545.26,182.73z"/>
<path class="st3" d="M651.03,226.18c0-24.13,19.56-43.69,43.69-43.69c13.38,0,25.36,6.02,33.37,15.5l7.74-5.98
	c-9.81-11.79-24.59-19.29-41.12-19.29c-29.53,0-53.47,23.94-53.47,53.47c0,11.63,3.72,22.39,10.02,31.17l7.74-5.98
	C653.98,244.24,651.03,235.55,651.03,226.18z"/>
<path class="st1" d="M728.09,197.98c6.43,7.61,10.32,17.45,10.32,28.19c0,24.13-19.56,43.69-43.69,43.69
	c-14.75,0-27.79-7.31-35.7-18.51l-7.74,5.98c9.7,13.5,25.55,22.3,43.45,22.3c29.53,0,53.47-23.94,53.47-53.47
	c0-13-4.64-24.91-12.35-34.18L728.09,197.98z"/>
<path class="st3" d="M694.72,269.87c24.13,0,43.69-19.56,43.69-43.69c0-10.75-3.88-20.58-10.32-28.19c-5,3.86-10,7.72-14.99,11.59
	c-10.43,8.06-20.86,16.12-31.29,24.18c-7.6,5.87-15.2,11.74-22.79,17.61C661.8,255.13,668.42,269.87,694.72,269.87z"/>
<path class="st4" d="M694.72,182.48c-24.13,0-43.69,19.56-43.69,43.69c0,9.38,2.96,18.07,7.99,25.19l69.08-53.38
	C720.08,188.5,708.1,182.48,694.72,182.48z"/>
<path class="st3" d="M54.88,360.75c0-24.13,19.56-43.69,43.69-43.69c13.38,0,25.36,6.02,33.37,15.5l7.74-5.98
	c-9.81-11.79-24.59-19.29-41.12-19.29c-29.53,0-53.47,23.94-53.47,53.47c0,11.63,3.72,22.39,10.02,31.17l7.74-5.98
	C57.83,378.82,54.88,370.13,54.88,360.75z"/>
<path class="st1" d="M131.94,332.56c6.43,7.61,10.32,17.45,10.32,28.19c0,24.13-19.56,43.69-43.69,43.69
	c-14.75,0-27.79-7.31-35.7-18.51l-7.74,5.98c9.7,13.5,25.55,22.3,43.45,22.3c29.53,0,53.47-23.94,53.47-53.47
	c0-13-4.64-24.91-12.35-34.18L131.94,332.56z"/>
<path class="st3" d="M98.57,404.44c24.13,0,43.69-19.56,43.69-43.69c0-10.75-3.88-20.58-10.32-28.19c-5,3.86-10,7.72-14.99,11.59
	c-10.43,8.06-20.86,16.12-31.29,24.18c-7.6,5.87-15.2,11.74-22.79,17.61C65.65,389.71,72.27,404.44,98.57,404.44z"/>
<path class="st4" d="M98.57,317.06c-24.13,0-43.69,19.56-43.69,43.69c0,9.38,2.96,18.07,7.99,25.19l69.08-53.38
	C123.93,323.08,111.95,317.06,98.57,317.06z"/>
<path class="st3" d="M204.07,361.05c0-24.13,19.56-43.69,43.69-43.69c13.38,0,25.36,6.02,33.37,15.5l7.74-5.98
	c-9.81-11.79-24.59-19.29-41.12-19.29c-29.53,0-53.47,23.94-53.47,53.47c0,11.63,3.72,22.39,10.02,31.17l7.74-5.98
	C207.03,379.12,204.07,370.43,204.07,361.05z"/>
<path class="st1" d="M281.14,332.86c6.43,7.61,10.32,17.45,10.32,28.19c0,24.13-19.56,43.69-43.69,43.69
	c-14.75,0-27.79-7.31-35.7-18.51l-7.74,5.98c9.7,13.5,25.55,22.3,43.45,22.3c29.53,0,53.47-23.94,53.47-53.47
	c0-13-4.64-24.91-12.35-34.18L281.14,332.86z"/>
<path class="st3" d="M247.76,404.74c24.13,0,43.69-19.56,43.69-43.69c0-10.75-3.88-20.58-10.32-28.19c-5,3.86-10,7.72-14.99,11.59
	c-10.43,8.06-20.86,16.12-31.29,24.18c-7.6,5.87-15.2,11.74-22.79,17.61C214.84,390.01,221.47,404.74,247.76,404.74z"/>
<path class="st4" d="M247.76,317.36c-24.13,0-43.69,19.56-43.69,43.69c0,9.38,2.96,18.07,7.99,25.19l69.08-53.38
	C273.12,323.38,261.14,317.36,247.76,317.36z"/>
<path class="st3" d="M352.37,361.12c0-24.13,19.56-43.69,43.69-43.69c13.38,0,25.36,6.02,33.37,15.5l7.74-5.98
	c-9.81-11.79-24.59-19.29-41.12-19.29c-29.53,0-53.47,23.94-53.47,53.47c0,11.63,3.72,22.39,10.02,31.17l7.74-5.98
	C355.33,379.19,352.37,370.5,352.37,361.12z"/>
<path class="st1" d="M429.44,332.93c6.43,7.61,10.32,17.45,10.32,28.19c0,24.13-19.56,43.69-43.69,43.69
	c-14.75,0-27.79-7.31-35.7-18.51l-7.74,5.98c9.7,13.5,25.55,22.3,43.45,22.3c29.53,0,53.47-23.94,53.47-53.47
	c0-13-4.64-24.91-12.35-34.18L429.44,332.93z"/>
<path class="st3" d="M396.06,404.81c24.13,0,43.69-19.56,43.69-43.69c0-10.75-3.88-20.58-10.32-28.19c-5,3.86-10,7.72-14.99,11.59
	c-10.43,8.06-20.86,16.12-31.29,24.18c-7.6,5.87-15.2,11.74-22.79,17.61C363.14,390.08,369.77,404.81,396.06,404.81z"/>
<path class="st4" d="M396.06,317.43c-24.13,0-43.69,19.56-43.69,43.69c0,9.38,2.96,18.07,7.99,25.19l69.08-53.38
	C421.42,323.45,409.45,317.43,396.06,317.43z"/>
<path class="st3" d="M501.56,361.42c0-24.13,19.56-43.69,43.69-43.69c13.38,0,25.36,6.02,33.37,15.5l7.74-5.98
	c-9.81-11.79-24.59-19.29-41.12-19.29c-29.53,0-53.47,23.94-53.47,53.47c0,11.63,3.72,22.39,10.02,31.17l7.74-5.98
	C504.52,379.49,501.56,370.8,501.56,361.42z"/>
<path class="st1" d="M578.63,333.23c6.43,7.61,10.32,17.45,10.32,28.19c0,24.13-19.56,43.69-43.69,43.69
	c-14.75,0-27.79-7.31-35.7-18.51l-7.74,5.98c9.7,13.5,25.55,22.3,43.45,22.3c29.53,0,53.47-23.94,53.47-53.47
	c0-13-4.64-24.91-12.35-34.18L578.63,333.23z"/>
<path class="st3" d="M545.26,405.11c24.13,0,43.69-19.56,43.69-43.69c0-10.75-3.88-20.58-10.32-28.19c-5,3.86-10,7.72-14.99,11.59
	c-10.43,8.06-20.86,16.12-31.29,24.18c-7.6,5.87-15.2,11.74-22.79,17.61C512.33,390.38,518.96,405.11,545.26,405.11z"/>
<path class="st4" d="M545.26,317.73c-24.13,0-43.69,19.56-43.69,43.69c0,9.38,2.96,18.07,7.99,25.19l69.08-53.38
	C570.62,323.75,558.64,317.73,545.26,317.73z"/>
<path class="st3" d="M651.03,361.18c0-24.13,19.56-43.69,43.69-43.69c13.38,0,25.36,6.02,33.37,15.5l7.74-5.98
	c-9.81-11.79-24.59-19.29-41.12-19.29c-29.53,0-53.47,23.94-53.47,53.47c0,11.63,3.72,22.39,10.02,31.17l7.74-5.98
	C653.98,379.24,651.03,370.55,651.03,361.18z"/>
<path class="st1" d="M728.09,332.98c6.43,7.61,10.32,17.45,10.32,28.19c0,24.13-19.56,43.69-43.69,43.69
	c-14.75,0-27.79-7.31-35.7-18.51l-7.74,5.98c9.7,13.5,25.55,22.3,43.45,22.3c29.53,0,53.47-23.94,53.47-53.47
	c0-13-4.64-24.91-12.35-34.18L728.09,332.98z"/>
<path class="st3" d="M694.72,404.87c24.13,0,43.69-19.56,43.69-43.69c0-10.75-3.88-20.58-10.32-28.19c-5,3.86-10,7.72-14.99,11.59
	c-10.43,8.06-20.86,16.12-31.29,24.18c-7.6,5.87-15.2,11.74-22.79,17.61C661.8,390.13,668.42,404.87,694.72,404.87z"/>
<path class="st4" d="M694.72,317.73c-24.13,0-43.69,19.56-43.69,43.69c0,9.38,2.96,18.07,7.99,25.19l69.08-53.38
	C720.08,323.75,708.1,317.73,694.72,317.73z"/>
<path class="st3" d="M53.59,494.47c0-24.13,19.56-43.69,43.69-43.69c13.38,0,25.36,6.02,33.37,15.5l7.74-5.98
	C128.59,448.5,113.81,441,97.28,441c-29.53,0-53.47,23.94-53.47,53.47c0,11.63,3.72,22.39,10.02,31.17l7.74-5.98
	C56.55,512.54,53.59,503.85,53.59,494.47z"/>
<path class="st1" d="M130.66,466.27c6.43,7.61,10.32,17.45,10.32,28.19c0,24.13-19.56,43.69-43.69,43.69
	c-14.75,0-27.79-7.31-35.7-18.51l-7.74,5.98c9.7,13.5,25.55,22.3,43.45,22.3c29.53,0,53.47-23.94,53.47-53.47
	c0-13-4.64-24.91-12.35-34.18L130.66,466.27z"/>
<path class="st3" d="M97.28,538.16c24.13,0,43.69-19.56,43.69-43.69c0-10.75-3.88-20.58-10.32-28.19c-5,3.86-10,7.72-14.99,11.59
	c-10.43,8.06-20.86,16.12-31.29,24.18c-7.6,5.87-15.2,11.74-22.79,17.61C64.36,523.43,70.99,538.16,97.28,538.16z"/>
<path class="st4" d="M97.28,450.78c-24.13,0-43.69,19.56-43.69,43.69c0,9.38,2.96,18.07,7.99,25.19l69.08-53.38
	C122.64,456.8,110.67,450.78,97.28,450.78z"/>
<path class="st3" d="M202.78,494.77c0-24.13,19.56-43.69,43.69-43.69c13.38,0,25.36,6.02,33.37,15.5l7.74-5.98
	c-9.81-11.79-24.59-19.29-41.12-19.29c-29.53,0-53.47,23.94-53.47,53.47c0,11.63,3.72,22.39,10.02,31.17l7.74-5.98
	C205.74,512.83,202.78,504.15,202.78,494.77z"/>
<path class="st4" d="M279.85,466.57c6.43,7.61,10.32,17.45,10.32,28.19c0,24.13-19.56,43.69-43.69,43.69
	c-14.75,0-27.79-7.31-35.7-18.51l-7.74,5.98c9.7,13.5,25.55,22.3,43.45,22.3c29.53,0,53.47-23.94,53.47-53.47
	c0-13-4.64-24.91-12.35-34.18L279.85,466.57z"/>
<path class="st3" d="M246.47,538.46c24.13,0,43.69-19.56,43.69-43.69c0-10.75-3.88-20.58-10.32-28.19c-5,3.86-10,7.72-14.99,11.59
	c-10.43,8.06-20.86,16.12-31.29,24.18c-7.6,5.87-15.2,11.74-22.79,17.61C213.55,523.73,220.18,538.46,246.47,538.46z"/>
<path class="st4" d="M246.47,451.08c-24.13,0-43.69,19.56-43.69,43.69c0,9.38,2.96,18.07,7.99,25.19l69.08-53.38
	C271.84,457.1,259.86,451.08,246.47,451.08z"/>
<path class="st3" d="M351.09,494.84c0-24.13,19.56-43.69,43.69-43.69c13.38,0,25.36,6.02,33.37,15.5l7.74-5.98
	c-9.81-11.79-24.59-19.29-41.12-19.29c-29.53,0-53.47,23.94-53.47,53.47c0,11.63,3.72,22.39,10.02,31.17l7.74-5.98
	C354.04,512.9,351.09,504.22,351.09,494.84z"/>
<path class="st1" d="M428.15,466.64c6.43,7.61,10.32,17.45,10.32,28.19c0,24.13-19.56,43.69-43.69,43.69
	c-14.75,0-27.79-7.31-35.7-18.51l-7.74,5.98c9.7,13.5,25.55,22.3,43.45,22.3c29.53,0,53.47-23.94,53.47-53.47
	c0-13-4.64-24.91-12.35-34.18L428.15,466.64z"/>
<path class="st3" d="M394.78,538.53c24.13,0,43.69-19.56,43.69-43.69c0-10.75-3.88-20.58-10.32-28.19c-5,3.86-10,7.72-14.99,11.59
	c-10.43,8.06-20.86,16.12-31.29,24.18c-7.6,5.87-15.2,11.74-22.79,17.61C361.86,523.8,368.48,538.53,394.78,538.53z"/>
<path class="st4" d="M394.78,451.15c-24.13,0-43.69,19.56-43.69,43.69c0,9.38,2.96,18.07,7.99,25.19l69.08-53.38
	C420.14,457.17,408.16,451.15,394.78,451.15z"/>
<path class="st3" d="M500.28,495.14c0-24.13,19.56-43.69,43.69-43.69c13.38,0,25.36,6.02,33.37,15.5l7.74-5.98
	c-9.81-11.79-24.59-19.29-41.12-19.29c-29.53,0-53.47,23.94-53.47,53.47c0,11.63,3.72,22.39,10.02,31.17l7.74-5.98
	C503.24,513.2,500.28,504.52,500.28,495.14z"/>
<path class="st1" d="M577.35,466.94c6.43,7.61,10.32,17.45,10.32,28.19c0,24.13-19.56,43.69-43.69,43.69
	c-14.75,0-27.79-7.31-35.7-18.51l-7.74,5.98c9.7,13.5,25.55,22.3,43.45,22.3c29.53,0,53.47-23.94,53.47-53.47
	c0-13-4.64-24.91-12.35-34.18L577.35,466.94z"/>
<path class="st3" d="M543.97,538.83c24.13,0,43.69-19.56,43.69-43.69c0-10.75-3.88-20.58-10.32-28.19c-5,3.86-10,7.72-14.99,11.59
	c-10.43,8.06-20.86,16.12-31.29,24.18c-7.6,5.87-15.2,11.74-22.79,17.61C511.05,524.1,517.67,538.83,543.97,538.83z"/>
<path class="st4" d="M543.97,451.45c-24.13,0-43.69,19.56-43.69,43.69c0,9.38,2.96,18.07,7.99,25.19l69.08-53.38
	C569.33,457.47,557.35,451.45,543.97,451.45z"/>
<path class="st3" d="M649.74,494.89c0-24.13,19.56-43.69,43.69-43.69c13.38,0,25.36,6.02,33.37,15.5l7.74-5.98
	c-9.81-11.79-24.59-19.29-41.12-19.29c-29.53,0-53.47,23.94-53.47,53.47c0,11.63,3.72,22.39,10.02,31.17l7.74-5.98
	C652.7,512.96,649.74,504.27,649.74,494.89z"/>
<path class="st1" d="M726.81,466.7c6.43,7.61,10.32,17.45,10.32,28.19c0,24.13-19.56,43.69-43.69,43.69
	c-14.75,0-27.79-7.31-35.7-18.51l-7.74,5.98c9.7,13.5,25.55,22.3,43.45,22.3c29.53,0,53.47-23.94,53.47-53.47
	c0-13-4.64-24.91-12.35-34.18L726.81,466.7z"/>
<path class="st3" d="M693.43,538.58c24.13,0,43.69-19.56,43.69-43.69c0-10.75-3.88-20.58-10.32-28.19c-5,3.86-10,7.72-14.99,11.59
	c-10.43,8.06-20.86,16.12-31.29,24.18c-7.6,5.87-15.2,11.74-22.79,17.61C660.51,523.85,667.14,538.58,693.43,538.58z"/>
<path class="st4" d="M693.43,451.2c-24.13,0-43.69,19.56-43.69,43.69c0,9.38,2.96,18.07,7.99,25.19l69.08-53.38
	C718.79,457.22,706.82,451.2,693.43,451.2z"/>
</svg>
